<svg height="372pt" viewBox="0 0 372 372.38235" width="372pt" xmlns="http://www.w3.org/2000/svg"><g fill="#78b9eb"><path d="m25.15625 290.84375 237.410156-237.414062 28.285156 28.285156-237.414062 237.414062zm0 0"/><path d="m262.574219 53.421875 17.148437-17.140625 56.554688 56.59375-17.148438 17.140625zm0 0"/><path d="m53.449219 319.125 237.410156-237.414062 28.285156 28.285156-237.414062 237.414062zm0 0"/></g><path d="m370.226562 58.910156-56.566406-56.566406c-3.125-3.125-8.1875-3.125-11.3125 0l-282.847656 282.839844-.046875.070312c-.636719.664063-1.152344 1.4375-1.519531 2.28125-.097656.214844-.167969.421875-.25.648438-.125.277344-.234375.566406-.320313.863281l-16.96875 73.535156c-.546875 2.375.019531 4.871094 1.535157 6.777344 1.515624 1.910156 3.820312 3.023437 6.257812 3.023437.605469 0 1.210938-.066406 1.800781-.207031l73.535157-16.96875c.296874-.085937.585937-.195312.863281-.320312.226562-.082031.433593-.152344.648437-.25.84375-.367188 1.617188-.882813 2.28125-1.519531l282.910156-282.894532c3.125-3.125 3.125-8.1875 0-11.3125zm-288.496093 277.191406-16.972657-16.976562 226.09375-226.09375 16.976563 16.96875zm197.808593-254.398437-226.09375 226.109375-16.976562-16.972656 226.105469-226.097656zm-5.65625-28.289063 5.832032-5.832031 45.257812 45.257813-5.832031 5.832031zm-255.023437 300.296876 10.847656-46.976563 36.160157 36.160156zm317.425781-272.167969-45.257812-45.257813 16.976562-16.96875 45.25 45.25zm0 0" fill="#1a6fb0"/></svg>